<svg width="768" height="160" fill="none" xmlns="http://www.w3.org/2000/svg">
  <path d="M768 0H0v60c0 55.228 44.772 100 100 100h668V0z" fill="#5964E0"/>
  <mask id="a" maskUnits="userSpaceOnUse" x="0" y="0" width="768" height="160">
    <path d="M768 0H0v60c0 55.228 44.772 100 100 100h668V0z" fill="#fff"/>
  </mask>
  <g mask="url(#a)" fill-rule="evenodd" clip-rule="evenodd" fill="#fff">
    <path opacity=".081" d="M254.539-323.259c-3.117-31.792 29.711-54.779 58.52-40.976L657.22-199.337c28.291 13.556 31.498 52.567 5.8 70.561L356.104 86.129c-25.698 17.993-61.259 1.637-64.321-29.584L254.539-323.26zM-71.46 71.741c-3.119-31.792 29.71-54.78 58.52-40.976l344.16 164.898c28.291 13.556 31.498 52.567 5.8 70.561L30.104 481.129c-25.698 17.993-61.26 1.637-64.32-29.584L-71.462 71.741z"/>
  </g>
</svg>